# xmcd
#
# Track frame offsets:
#	150
#	17641
#	34840
#	49878
#	63547
#	77644
#	95415
#	119641
#	139357
#	156964
#	173187
#	189603
#	205327
#	221407
#	235269
#	254496
#	272904
#	284971
#	301965
#	316320
#	333831
#
# Disc length: 4613 seconds
#
# Revision: 1
# Processed by: cddbd v1.5.2PL0 Copyright (c) Steve Scherf et al.
# Submitted via: audiograbber 1.83.01
#
DISCID=46120315
DTITLE=Various Artist - Cream of Country Vol 13
DYEAR=2010
DGENRE=Country
TTITLE0=Taylor Swift - You Belong With Me
TTITLE1=Keith Urban - Sweet Thing
TTITLE2=Kenny Chesney - Out Last Night
TTITLE3=Sugarland - It Happens
TTITLE4=Tim McGraw - It's A Business Doing Pleasure With You
TTITLE5=Carrie Underwood - Twisted
TTITLE6=Brade Paisley - Then
TTITLE7=Brooks and Dunn - Indian Summer
TTITLE8=Martina McBride - Ride
TTITLE9=Blake Shelton - She Wouldn't Be Gone
TTITLE10=Darius Rucker - It WOn't Be Like This For Long
TTITLE11=Miranda Lambert - More Like Her
TTITLE12=Chris Young - Gettin' You Home
TTITLE13=Dierks Bentley - Sideways
TTITLE14=Lady Antebellum - I Run To You
TTITLE15=Alan Jackson - Country Boy
TTITLE16=Rodney Atkins - 15 Minutes
TTITLE17=Kellie Pickler - Best Days Of You Life
TTITLE18=Josh Thompson - Beer On The Table
TTITLE19=Billy Currington - People Are Crazy
TTITLE20=The Lost Trailers - How 'Bout You Don't
EXTD=
EXTT0=
EXTT1=
EXTT2=
EXTT3=
EXTT4=
EXTT5=
EXTT6=
EXTT7=
EXTT8=
EXTT9=
EXTT10=
EXTT11=
EXTT12=
EXTT13=
EXTT14=
EXTT15=
EXTT16=
EXTT17=
EXTT18=
EXTT19=
EXTT20=
PLAYORDER=
